<svg xmlns="https://www.w3.org/2000/svg" display="none">
    <symbol id="italic" viewBox="0 0 16 16">
        <path fill="currentColor" d="M7.83 12H6l1.599-8h1.83z"/>
    </symbol>
    <symbol id="leftArrow" viewBox="0 0 31.863 31.862">
        <path d="M21.644 23.185l-18.68-6.227a1.491 1.491 0 01-.395-.253 1.036 1.036 0 01-.325-.756 1.091 1.091 0 01.758-1.04L21.608 8.68z" data-name="Path 879" fill="none" stroke="currentColor" stroke-width="2.5"/>
    </symbol>
    <symbol id="rightArrow" viewBox="0 0 31.863 31.862">
        <path d="M10.218 23.186L28.9 16.961a1.491 1.491 0 00.395-.253 1.036 1.036 0 00.323-.756 1.091 1.091 0 00-.758-1.04l-18.606-6.23z" data-name="Path 880" fill="none" stroke="currentColor" stroke-width="2.5"/>
    </symbol>
    <symbol id="logo" viewBox="0 0 1200 800">
        <path fill="currentColor" d="M471 221.7l2.1.2 2.1.3 2.1.4 2 .5 2 .6 2 .7 1.9.8 1.9.9 1.9 1 1.8 1 1.8 1.1 1.8 1.2 1.7 1.3 1.6 1.3 1.6 1.4 1.5 1.5 1.5 1.5 1.5 1.6 1.4 1.7 1.4 1.7 1.3 1.8 1.2 1.8 1.2 1.9 1.1 1.9 1 2 1 2 .9 2.1.8 2.1.8 2.2.7 2.2.6 2.3.5 2.3.5 2.3.4 2.4.3 2.4.2 2.4.1 2.5v5l-.1 2.5-.2 2.4-.3 2.4-.4 2.4-.5 2.3-.5 2.3-.6 2.3-.7 2.2-.8 2.2-.8 2.1-.9 2.1-.5 1-.2.4-.3.7-.7 1.3-45 89.4-45.2-89.8-.5-.9-.2-.5-.1-.3-.6-1.3-.9-2.1-.8-2.1-.8-2.2-.7-2.2-.6-2.3-.5-2.3-.5-2.3-.4-2.4-.3-2.4-.2-2.4-.1-2.5v-5l.1-2.5.2-2.4.3-2.4.4-2.4.5-2.3.5-2.3.6-2.3.7-2.2.8-2.2.8-2.1.9-2.1 1-2 1-2 1.1-1.9 1.2-1.9 1.2-1.8 1.3-1.8 1.3-1.7 1.4-1.7 1.5-1.6 1.5-1.5 1.5-1.5 1.6-1.4 1.7-1.3 1.7-1.3 1.7-1.2 1.8-1.1 1.8-1 1.9-1 1.9-.9 1.9-.8 2-.7 2-.6 2-.5 2.1-.4 2.1-.3 2.1-.2 2.1-.1h4.4l2.1.1z"/>
        <path stroke="currentColor" stroke-width="3" d="M471 221.7l2.1.2 2.1.3 2.1.4 2 .5 2 .6 2 .7 1.9.8 1.9.9 1.9 1 1.8 1 1.8 1.1 1.8 1.2 1.7 1.3 1.6 1.3 1.6 1.4 1.5 1.5 1.5 1.5 1.5 1.6 1.4 1.7 1.4 1.7 1.3 1.8 1.2 1.8 1.2 1.9 1.1 1.9 1 2 1 2 .9 2.1.8 2.1.8 2.2.7 2.2.6 2.3.5 2.3.5 2.3.4 2.4.3 2.4.2 2.4.1 2.5v5l-.1 2.5-.2 2.4-.3 2.4-.4 2.4-.5 2.3-.5 2.3-.6 2.3-.7 2.2-.8 2.2-.8 2.1-.9 2.1-.5 1h0l-.2.4-.3.7-.7 1.3-45 89.4-45.2-89.8-.5-.9-.2-.5-.1-.3h0l-.6-1.3-.9-2.1-.8-2.1-.8-2.2-.7-2.2-.6-2.3-.5-2.3-.5-2.3-.4-2.4-.3-2.4-.2-2.4-.1-2.5v-5l.1-2.5.2-2.4.3-2.4.4-2.4.5-2.3.5-2.3.6-2.3.7-2.2.8-2.2.8-2.1.9-2.1 1-2 1-2 1.1-1.9 1.2-1.9 1.2-1.8 1.3-1.8 1.3-1.7 1.4-1.7 1.5-1.6 1.5-1.5 1.5-1.5 1.6-1.4 1.7-1.3 1.7-1.3 1.7-1.2 1.8-1.1 1.8-1 1.9-1 1.9-.9 1.9-.8 2-.7 2-.6 2-.5 2.1-.4 2.1-.3 2.1-.2 2.1-.1h4.4l2.1.1z" fill="none"/>
        <path fill="currentColor" d="M466.7 312.7c18.6 0 33.7-15.4 33.7-34.4S485.3 244 466.7 244 433 259.4 433 278.4s15.1 34.3 33.7 34.3z"/>
        <path stroke="currentColor" stroke-width="3" d="M466.7 312.7c18.6 0 33.7-15.4 33.7-34.4S485.3 244 466.7 244 433 259.4 433 278.4s15.1 34.3 33.7 34.3h0z" fill="none"/>
        <text transform="translate(338.379 316.052)" fill="currentColor" font-family="&amp;amp;amp;amp;amp;amp;amp;amp;amp;amp;amp;amp;amp;amp;amp;amp;amp;amp;amp;amp;amp;amp;amp;amp;amp;amp;amp;amp;amp;amp;amp;amp;amp;amp;amp;amp;amp;amp;amp;apos;ArialMT&amp;amp;amp;amp;amp;amp;amp;amp;amp;amp;amp;amp;amp;amp;amp;amp;amp;amp;amp;amp;amp;amp;amp;amp;amp;amp;amp;amp;amp;amp;amp;amp;amp;amp;amp;amp;amp;amp;amp;apos;" font-size="150">
            
            
            
            
            
            
            
            
            
            
            
            
            
            
            
            
            
            
            
            
            
            
            
            
            
            
            
            
            
            
            
            
            
            
            
            
            
            
            
            T
        
        
        
        
        
        
        
        
        
        
        
        
        
        
        
        
        
        
        
        
        
        
        
        
        
        
        
        
        
        
        
        
        
        
        
        
        
        
        
        </text>
        <g>
            <text transform="translate(456.504 423.038)" fill="currentColor" font-family="&amp;amp;amp;amp;amp;amp;amp;amp;amp;amp;amp;amp;amp;amp;amp;amp;amp;amp;amp;amp;amp;amp;amp;amp;amp;amp;amp;amp;amp;amp;amp;amp;amp;amp;amp;amp;amp;amp;amp;apos;ArialMT&amp;amp;amp;amp;amp;amp;amp;amp;amp;amp;amp;amp;amp;amp;amp;amp;amp;amp;amp;amp;amp;amp;amp;amp;amp;amp;amp;amp;amp;amp;amp;amp;amp;amp;amp;amp;amp;amp;amp;apos;" font-size="70">
                
                
                
                
                
                
                
                
                
                
                
                
                
                
                
                
                
                
                
                
                
                
                
                
                
                
                
                
                
                
                
                
                
                
                
                
                
                
                
                .online
            
            
            
            
            
            
            
            
            
            
            
            
            
            
            
            
            
            
            
            
            
            
            
            
            
            
            
            
            
            
            
            
            
            
            
            
            
            
            
            </text>
        </g>
        <g>
            <text transform="translate(525.308 316.05)" fill="currentColor" font-family="&amp;amp;amp;amp;amp;amp;amp;amp;amp;amp;amp;amp;amp;amp;amp;amp;amp;amp;amp;amp;amp;amp;amp;amp;amp;amp;amp;amp;amp;amp;amp;amp;amp;amp;amp;amp;amp;amp;amp;apos;ArialMT&amp;amp;amp;amp;amp;amp;amp;amp;amp;amp;amp;amp;amp;amp;amp;amp;amp;amp;amp;amp;amp;amp;amp;amp;amp;amp;amp;amp;amp;amp;amp;amp;amp;amp;amp;amp;amp;amp;amp;apos;" font-size="150">
                
                
                
                
                
                
                
                
                
                
                
                
                
                
                
                
                
                
                
                
                
                
                
                
                
                
                
                
                
                
                
                
                
                
                
                
                
                
                
                uRest
            
            
            
            
            
            
            
            
            
            
            
            
            
            
            
            
            
            
            
            
            
            
            
            
            
            
            
            
            
            
            
            
            
            
            
            
            
            
            
            </text>
        </g>
    </symbol>
    <symbol id="logo" viewBox="0 0 1200 800">
        <path fill="currentColor" d="M471 221.7l2.1.2 2.1.3 2.1.4 2 .5 2 .6 2 .7 1.9.8 1.9.9 1.9 1 1.8 1 1.8 1.1 1.8 1.2 1.7 1.3 1.6 1.3 1.6 1.4 1.5 1.5 1.5 1.5 1.5 1.6 1.4 1.7 1.4 1.7 1.3 1.8 1.2 1.8 1.2 1.9 1.1 1.9 1 2 1 2 .9 2.1.8 2.1.8 2.2.7 2.2.6 2.3.5 2.3.5 2.3.4 2.4.3 2.4.2 2.4.1 2.5v5l-.1 2.5-.2 2.4-.3 2.4-.4 2.4-.5 2.3-.5 2.3-.6 2.3-.7 2.2-.8 2.2-.8 2.1-.9 2.1-.5 1-.2.4-.3.7-.7 1.3-45 89.4-45.2-89.8-.5-.9-.2-.5-.1-.3-.6-1.3-.9-2.1-.8-2.1-.8-2.2-.7-2.2-.6-2.3-.5-2.3-.5-2.3-.4-2.4-.3-2.4-.2-2.4-.1-2.5v-5l.1-2.5.2-2.4.3-2.4.4-2.4.5-2.3.5-2.3.6-2.3.7-2.2.8-2.2.8-2.1.9-2.1 1-2 1-2 1.1-1.9 1.2-1.9 1.2-1.8 1.3-1.8 1.3-1.7 1.4-1.7 1.5-1.6 1.5-1.5 1.5-1.5 1.6-1.4 1.7-1.3 1.7-1.3 1.7-1.2 1.8-1.1 1.8-1 1.9-1 1.9-.9 1.9-.8 2-.7 2-.6 2-.5 2.1-.4 2.1-.3 2.1-.2 2.1-.1h4.4l2.1.1z"/>
        <path stroke="currentColor" stroke-width="3" d="M471 221.7l2.1.2 2.1.3 2.1.4 2 .5 2 .6 2 .7 1.9.8 1.9.9 1.9 1 1.8 1 1.8 1.1 1.8 1.2 1.7 1.3 1.6 1.3 1.6 1.4 1.5 1.5 1.5 1.5 1.5 1.6 1.4 1.7 1.4 1.7 1.3 1.8 1.2 1.8 1.2 1.9 1.1 1.9 1 2 1 2 .9 2.1.8 2.1.8 2.2.7 2.2.6 2.3.5 2.3.5 2.3.4 2.4.3 2.4.2 2.4.1 2.5v5l-.1 2.5-.2 2.4-.3 2.4-.4 2.4-.5 2.3-.5 2.3-.6 2.3-.7 2.2-.8 2.2-.8 2.1-.9 2.1-.5 1h0l-.2.4-.3.7-.7 1.3-45 89.4-45.2-89.8-.5-.9-.2-.5-.1-.3h0l-.6-1.3-.9-2.1-.8-2.1-.8-2.2-.7-2.2-.6-2.3-.5-2.3-.5-2.3-.4-2.4-.3-2.4-.2-2.4-.1-2.5v-5l.1-2.5.2-2.4.3-2.4.4-2.4.5-2.3.5-2.3.6-2.3.7-2.2.8-2.2.8-2.1.9-2.1 1-2 1-2 1.1-1.9 1.2-1.9 1.2-1.8 1.3-1.8 1.3-1.7 1.4-1.7 1.5-1.6 1.5-1.5 1.5-1.5 1.6-1.4 1.7-1.3 1.7-1.3 1.7-1.2 1.8-1.1 1.8-1 1.9-1 1.9-.9 1.9-.8 2-.7 2-.6 2-.5 2.1-.4 2.1-.3 2.1-.2 2.1-.1h4.4l2.1.1z" fill="none"/>
        <path fill="currentColor" d="M466.7 312.7c18.6 0 33.7-15.4 33.7-34.4S485.3 244 466.7 244 433 259.4 433 278.4s15.1 34.3 33.7 34.3z"/>
        <path stroke="currentColor" stroke-width="3" d="M466.7 312.7c18.6 0 33.7-15.4 33.7-34.4S485.3 244 466.7 244 433 259.4 433 278.4s15.1 34.3 33.7 34.3h0z" fill="none"/>
        <text transform="translate(338.379 316.052)" fill="currentColor" font-family="&amp;amp;amp;amp;amp;amp;amp;amp;amp;amp;amp;amp;amp;amp;amp;amp;amp;amp;amp;amp;amp;amp;amp;amp;amp;amp;amp;amp;amp;amp;amp;amp;amp;amp;amp;amp;amp;amp;apos;ArialMT&amp;amp;amp;amp;amp;amp;amp;amp;amp;amp;amp;amp;amp;amp;amp;amp;amp;amp;amp;amp;amp;amp;amp;amp;amp;amp;amp;amp;amp;amp;amp;amp;amp;amp;amp;amp;amp;amp;apos;" font-size="150">
            
            
            
            
            
            
            
            
            
            
            
            
            
            
            
            
            
            
            
            
            
            
            
            
            
            
            
            
            
            
            
            
            
            
            
            
            
            
            T
        
        
        
        
        
        
        
        
        
        
        
        
        
        
        
        
        
        
        
        
        
        
        
        
        
        
        
        
        
        
        
        
        
        
        
        
        
        
        </text>
        <g>
            <text transform="translate(456.504 423.038)" fill="currentColor" font-family="&amp;amp;amp;amp;amp;amp;amp;amp;amp;amp;amp;amp;amp;amp;amp;amp;amp;amp;amp;amp;amp;amp;amp;amp;amp;amp;amp;amp;amp;amp;amp;amp;amp;amp;amp;amp;amp;amp;apos;ArialMT&amp;amp;amp;amp;amp;amp;amp;amp;amp;amp;amp;amp;amp;amp;amp;amp;amp;amp;amp;amp;amp;amp;amp;amp;amp;amp;amp;amp;amp;amp;amp;amp;amp;amp;amp;amp;amp;amp;apos;" font-size="70">
                
                
                
                
                
                
                
                
                
                
                
                
                
                
                
                
                
                
                
                
                
                
                
                
                
                
                
                
                
                
                
                
                
                
                
                
                
                
                .online
            
            
            
            
            
            
            
            
            
            
            
            
            
            
            
            
            
            
            
            
            
            
            
            
            
            
            
            
            
            
            
            
            
            
            
            
            
            
            </text>
        </g>
        <g>
            <text transform="translate(525.308 316.05)" fill="currentColor" font-family="&amp;amp;amp;amp;amp;amp;amp;amp;amp;amp;amp;amp;amp;amp;amp;amp;amp;amp;amp;amp;amp;amp;amp;amp;amp;amp;amp;amp;amp;amp;amp;amp;amp;amp;amp;amp;amp;amp;apos;ArialMT&amp;amp;amp;amp;amp;amp;amp;amp;amp;amp;amp;amp;amp;amp;amp;amp;amp;amp;amp;amp;amp;amp;amp;amp;amp;amp;amp;amp;amp;amp;amp;amp;amp;amp;amp;amp;amp;amp;apos;" font-size="150">
                
                
                
                
                
                
                
                
                
                
                
                
                
                
                
                
                
                
                
                
                
                
                
                
                
                
                
                
                
                
                
                
                
                
                
                
                
                
                uRest
            
            
            
            
            
            
            
            
            
            
            
            
            
            
            
            
            
            
            
            
            
            
            
            
            
            
            
            
            
            
            
            
            
            
            
            
            
            
            </text>
        </g>
    </symbol>
    <symbol id="star" viewBox="0 0 55.867 55.867">
        <path d="M11.287 54.548a.997.997 0 01-.985-1.169l3.091-18.018L.302 22.602a1.001 1.001 0 01.555-1.705l18.09-2.629 8.091-16.393a.996.996 0 011.792 0l8.09 16.393 18.091 2.629a1.002 1.002 0 01.555 1.705L42.475 35.363l3.09 18.017c.064.375-.09.754-.397.978a.993.993 0 01-1.054.076l-16.18-8.506-16.182 8.506a1.008 1.008 0 01-.465.114zM3.149 22.584l12.016 11.713a1 1 0 01.287.885L12.615 51.72l14.854-7.808a.996.996 0 01.931 0l14.852 7.808-2.836-16.538a1 1 0 01.287-.885l12.016-11.713-16.605-2.413a1 1 0 01-.753-.547L27.934 4.578l-7.427 15.047a1 1 0 01-.753.547L3.149 22.584z"/>
    </symbol>
    <symbol id="calendar" viewBox="0 0 141.016 22">
        <g data-name="Group 7" fill="currentColor">
            <text data-name="Tours Today" transform="translate(29.017 17)" font-size="18" font-family="Montserrat-Medium,Montserrat" font-weight="500" letter-spacing=".02em">
                <tspan x="0" y="0">
                    
                    
                    
                    
                    
                    
                    
                    
                    
                    
                    
                    
                    
                    
                    
                    
                    
                    
                    
                    
                    
                    
                    
                    
                    
                    
                    
                    
                    
                    
                    
                    
                    
                    
                    
                    
                    Tours Today
                
                
                
                
                
                
                
                
                
                
                
                
                
                
                
                
                
                
                
                
                
                
                
                
                
                
                
                
                
                
                
                
                
                
                
                
                </tspan>
            </text>
            <path d="M18.496 2.6h-3.9V1.416A.424.424 0 0014.18 1a.424.424 0 00-.416.416V2.6H6.272V1.416A.424.424 0 005.856 1a.424.424 0 00-.416.416V2.6h-3.9A1.536 1.536 0 00.004 4.136v15.36a1.536 1.536 0 001.532 1.536h16.96a1.536 1.536 0 001.536-1.536V4.136A1.536 1.536 0 0018.496 2.6zm-16.96.832h3.9v1.184a.424.424 0 00.416.416.424.424 0 00.416-.416V3.432h7.492v1.184a.424.424 0 00.416.416.424.424 0 00.416-.416V3.432h3.9a.71.71 0 01.7.7v2.9H.832v-2.9a.71.71 0 01.704-.7zM18.496 20.2H1.536a.71.71 0 01-.7-.7V7.864H19.2v11.632a.71.71 0 01-.704.704zM7.264 10.5a.758.758 0 00-.768-.768.758.758 0 00-.768.768.768.768 0 00.768.768.768.768 0 00.768-.764zm3.52 0a.758.758 0 00-.768-.764.758.758 0 00-.768.768.768.768 0 00.768.768.768.768 0 00.768-.768zm3.52.016a.768.768 0 00-.768-.768.768.768 0 00-.768.768.758.758 0 00.768.768.758.758 0 00.768-.768zm3.52 0a.768.768 0 00-.768-.768.768.768 0 00-.768.768.758.758 0 00.768.768.758.758 0 00.768-.768zm-10.56 3.5a.758.758 0 00-.768-.768.758.758 0 00-.768.768.768.768 0 00.768.768.768.768 0 00.768-.76zm-3.52.016a.768.768 0 00-.768-.768.768.768 0 00-.768.768.758.758 0 00.768.768.758.758 0 00.768-.76zm7.04 0a.768.768 0 00-.768-.76.768.768 0 00-.768.768.758.758 0 00.768.768.758.758 0 00.768-.768zm3.52 0a.768.768 0 00-.768-.768.768.768 0 00-.768.768.758.758 0 00.768.768.758.758 0 00.768-.76zm3.52 0a.768.768 0 00-.768-.768.768.768 0 00-.768.768.758.758 0 00.768.768.758.758 0 00.768-.76zm-10.56 3.5a.758.758 0 00-.768-.768.758.758 0 00-.768.768.768.768 0 00.768.784.768.768 0 00.768-.772zm-3.52.016a.768.768 0 00-.768-.768.768.768 0 00-.768.768.758.758 0 00.768.768.758.758 0 00.768-.756zm7.04 0a.768.768 0 00-.768-.756.768.768 0 00-.768.768.758.758 0 00.768.768.758.758 0 00.768-.768z" data-name="calendar004 - E144"/>
        </g>
    </symbol>
    <symbol id="list" viewBox="0 0 197.973 197.973">
        <path d="M187.733 30.72H44.373c-5.647 0-10.24 4.593-10.24 10.24s4.593 10.24 10.24 10.24h143.36c5.647 0 10.24-4.593 10.24-10.24s-4.592-10.24-10.24-10.24zm0 13.653H44.373a3.417 3.417 0 01-3.413-3.413 3.417 3.417 0 013.413-3.413h143.36a3.417 3.417 0 013.413 3.413 3.416 3.416 0 01-3.413 3.413zM187.733 88.747H44.373c-5.647 0-10.24 4.593-10.24 10.24s4.593 10.24 10.24 10.24h143.36c5.647 0 10.24-4.593 10.24-10.24 0-5.648-4.592-10.24-10.24-10.24zm0 13.653H44.373c-1.882 0-3.413-1.531-3.413-3.413s1.531-3.413 3.413-3.413h143.36c1.882 0 3.413 1.531 3.413 3.413s-1.53 3.413-3.413 3.413zM187.733 146.773H44.373c-5.647 0-10.24 4.593-10.24 10.24s4.593 10.24 10.24 10.24h143.36c5.647 0 10.24-4.593 10.24-10.24s-4.592-10.24-10.24-10.24zm0 13.654H44.373a3.417 3.417 0 01-3.413-3.413 3.417 3.417 0 013.413-3.413h143.36a3.417 3.417 0 013.413 3.413 3.416 3.416 0 01-3.413 3.413zM23.893 30.72H3.413A3.414 3.414 0 000 34.133v13.653A3.414 3.414 0 003.413 51.2h20.48a3.414 3.414 0 003.413-3.413V34.133a3.414 3.414 0 00-3.413-3.413zM20.48 44.373H6.827v-6.827H20.48v6.827zM23.893 88.747H3.413A3.414 3.414 0 000 92.16v13.653a3.414 3.414 0 003.413 3.413h20.48a3.414 3.414 0 003.413-3.413V92.16a3.414 3.414 0 00-3.413-3.413zM20.48 102.4H6.827v-6.827H20.48v6.827zM23.893 146.773H3.413A3.414 3.414 0 000 150.186v13.653a3.414 3.414 0 003.413 3.413h20.48a3.414 3.414 0 003.413-3.413v-13.653a3.414 3.414 0 00-3.413-3.413zm-3.413 13.654H6.827V153.6H20.48v6.827z"/>
    </symbol>
    <symbol id="calendar" viewBox="0 0 512 512">
        <path d="M482 292.25V46c0-8.285-6.715-15-15-15h-76V15c0-8.285-6.715-15-15-15s-15 6.715-15 15v16h-60V15c0-8.285-6.715-15-15-15s-15 6.715-15 15v16h-60V15c0-8.285-6.715-15-15-15s-15 6.715-15 15v16h-60V15c0-8.285-6.715-15-15-15S91 6.715 91 15v16H15C6.715 31 0 37.715 0 46v391c0 8.285 6.715 15 15 15h249.805c24.25 36.152 65.488 60 112.195 60 74.438 0 135-60.563 135-135 0-32.07-11.25-61.563-30-84.75zM91 61v15c0 8.285 6.715 15 15 15s15-6.715 15-15V61h60v15c0 8.285 6.715 15 15 15s15-6.715 15-15V61h60v15c0 8.285 6.715 15 15 15s15-6.715 15-15V61h60v15c0 8.285 6.715 15 15 15s15-6.715 15-15V61h61v60H30V61zM30 422V151h422v113.805C430.535 250.41 404.73 242 377 242c-47.398 0-89.164 24.559-113.258 61.613A14.911 14.911 0 00257 302h-30c-8.285 0-15 6.715-15 15s6.715 15 15 15h22.723a133.88 133.88 0 00-6.883 30H227c-8.285 0-15 6.715-15 15s6.715 15 15 15h15.84a133.666 133.666 0 006.883 30zm347 60c-57.898 0-105-47.102-105-105s47.102-105 105-105 105 47.102 105 105-47.102 105-105 105zm0 0"/>
        <path d="M437 362h-45v-45c0-8.285-6.715-15-15-15s-15 6.715-15 15v60c0 8.285 6.715 15 15 15h60c8.285 0 15-6.715 15-15s-6.715-15-15-15zm0 0M136 182h-30c-8.285 0-15 6.715-15 15s6.715 15 15 15h30c8.285 0 15-6.715 15-15s-6.715-15-15-15zm0 0M136 242h-30c-8.285 0-15 6.715-15 15s6.715 15 15 15h30c8.285 0 15-6.715 15-15s-6.715-15-15-15zm0 0M136 302h-30c-8.285 0-15 6.715-15 15s6.715 15 15 15h30c8.285 0 15-6.715 15-15s-6.715-15-15-15zm0 0M227 212h30c8.285 0 15-6.715 15-15s-6.715-15-15-15h-30c-8.285 0-15 6.715-15 15s6.715 15 15 15zm0 0M227 272h30c8.285 0 15-6.715 15-15s-6.715-15-15-15h-30c-8.285 0-15 6.715-15 15s6.715 15 15 15zm0 0M136 362h-30c-8.285 0-15 6.715-15 15s6.715 15 15 15h30c8.285 0 15-6.715 15-15s-6.715-15-15-15zm0 0M347 212h30c8.285 0 15-6.715 15-15s-6.715-15-15-15h-30c-8.285 0-15 6.715-15 15s6.715 15 15 15zm0 0"/>
    </symbol>
    <symbol id="timetable" viewBox="0 0 512 512">
        <path d="M482 292.25V46c0-8.285-6.715-15-15-15h-76V15c0-8.285-6.715-15-15-15s-15 6.715-15 15v16h-60V15c0-8.285-6.715-15-15-15s-15 6.715-15 15v16h-60V15c0-8.285-6.715-15-15-15s-15 6.715-15 15v16h-60V15c0-8.285-6.715-15-15-15S91 6.715 91 15v16H15C6.715 31 0 37.715 0 46v391c0 8.285 6.715 15 15 15h249.805c24.25 36.152 65.488 60 112.195 60 74.438 0 135-60.563 135-135 0-32.07-11.25-61.563-30-84.75zM91 61v15c0 8.285 6.715 15 15 15s15-6.715 15-15V61h60v15c0 8.285 6.715 15 15 15s15-6.715 15-15V61h60v15c0 8.285 6.715 15 15 15s15-6.715 15-15V61h60v15c0 8.285 6.715 15 15 15s15-6.715 15-15V61h61v60H30V61zM30 422V151h422v113.805C430.535 250.41 404.73 242 377 242c-47.398 0-89.164 24.559-113.258 61.613A14.911 14.911 0 00257 302h-30c-8.285 0-15 6.715-15 15s6.715 15 15 15h22.723a133.88 133.88 0 00-6.883 30H227c-8.285 0-15 6.715-15 15s6.715 15 15 15h15.84a133.666 133.666 0 006.883 30zm347 60c-57.898 0-105-47.102-105-105s47.102-105 105-105 105 47.102 105 105-47.102 105-105 105zm0 0"/>
        <path d="M437 362h-45v-45c0-8.285-6.715-15-15-15s-15 6.715-15 15v60c0 8.285 6.715 15 15 15h60c8.285 0 15-6.715 15-15s-6.715-15-15-15zm0 0M136 182h-30c-8.285 0-15 6.715-15 15s6.715 15 15 15h30c8.285 0 15-6.715 15-15s-6.715-15-15-15zm0 0M136 242h-30c-8.285 0-15 6.715-15 15s6.715 15 15 15h30c8.285 0 15-6.715 15-15s-6.715-15-15-15zm0 0M136 302h-30c-8.285 0-15 6.715-15 15s6.715 15 15 15h30c8.285 0 15-6.715 15-15s-6.715-15-15-15zm0 0M227 212h30c8.285 0 15-6.715 15-15s-6.715-15-15-15h-30c-8.285 0-15 6.715-15 15s6.715 15 15 15zm0 0M227 272h30c8.285 0 15-6.715 15-15s-6.715-15-15-15h-30c-8.285 0-15 6.715-15 15s6.715 15 15 15zm0 0M136 362h-30c-8.285 0-15 6.715-15 15s6.715 15 15 15h30c8.285 0 15-6.715 15-15s-6.715-15-15-15zm0 0M347 212h30c8.285 0 15-6.715 15-15s-6.715-15-15-15h-30c-8.285 0-15 6.715-15 15s6.715 15 15 15zm0 0"/>
    </symbol>
    <symbol id="down" viewBox="0 0 309.156 309.156">
        <path fill="currentColor" d="M288.461 64.929L154.589 202.766 20.723 64.94 0 85.07l154.589 159.158L309.156 85.07z"/>
    </symbol>
    <symbol id="fbIcon" viewBox="0 0 11.294 24.404">
        <g data-name="Group 327">
            <g data-name="Group 322">
                <g data-name="Group 182" opacity=".997">
                    <path d="M3.328 24.4V11.851H0V7.966h3.328V5.112C3.328 1.797 5.353 0 8.307 0a28.225 28.225 0 012.986.152v3.461H9.256c-1.607 0-1.917.766-1.917 1.885v2.468h3.841l-.5 3.879H7.339V23.81l-.152.038a16.431 16.431 0 01-3.8.557z" data-name="Path 356" fill="currentColor"/>
                </g>
            </g>
        </g>
    </symbol>
    <symbol id="ig" viewBox="0 0 24.002 23.995">
        <path d="M12.004 5.845a6.152 6.152 0 106.152 6.152 6.142 6.142 0 00-6.152-6.152zm0 10.152a4 4 0 114-4 4.007 4.007 0 01-4 4zm7.839-10.4a1.435 1.435 0 11-1.435-1.435 1.432 1.432 0 011.435 1.431zm4.075 1.456a7.1 7.1 0 00-1.942-5.031A7.148 7.148 0 0016.948.084c-1.981-.112-7.919-.112-9.9 0A7.138 7.138 0 002.02 2.017 7.125 7.125 0 00.085 7.044c-.112 1.981-.112 7.919 0 9.9a7.1 7.1 0 001.939 5.03 7.157 7.157 0 005.028 1.938c1.981.112 7.919.112 9.9 0a7.1 7.1 0 005.024-1.938 7.148 7.148 0 001.938-5.028c.112-1.981.112-7.914 0-9.895zm-2.559 12.021a4.049 4.049 0 01-2.283 2.277c-1.58.626-5.328.482-7.073.482s-5.5.139-7.073-.482a4.049 4.049 0 01-2.28-2.277c-.626-1.58-.482-5.328-.482-7.073s-.139-5.5.482-7.073a4.049 4.049 0 012.281-2.281c1.58-.626 5.328-.482 7.073-.482s5.5-.139 7.073.482a4.049 4.049 0 012.281 2.281c.626 1.58.482 5.328.482 7.073s.145 5.495-.481 7.073z" fill="currentColor"/>
    </symbol>
    <symbol id="compass" viewBox="-62 1 934 934.999">
        <path d="M421.117 125.215V90.8c21.461-7.582 34.336-29.528 30.488-51.969C447.75 16.398 428.301 0 405.54 0c-22.758 0-42.219 16.398-46.066 38.832-3.852 22.441 9.03 44.387 30.488 51.969v34.414C169.465 133.703-3.672 317.117.574 537.75 4.816 758.363 184.875 935 405.54 935c220.66 0 400.719-176.637 404.965-397.25 4.238-220.633-168.89-404.047-389.387-412.535zm-15.578-93.86c8.606 0 15.578 6.977 15.578 15.575 0 8.605-6.972 15.586-15.578 15.586-8.601 0-15.578-6.98-15.578-15.586 0-8.598 6.976-15.575 15.578-15.575zm0 872.395c-206.492 0-373.883-167.395-373.883-373.887 0-206.488 167.39-373.883 373.883-373.883 206.492 0 373.883 167.395 373.883 373.883-.242 206.395-167.488 373.645-373.883 373.887zm0 0" fill="none"/>
        <path d="M639.012 274.719L352.574 472.992a33.207 33.207 0 01-3.941 3.938L150.395 763.34a15.56 15.56 0 001.804 19.86c5.313 5.316 13.676 6.081 19.863 1.808l286.442-198.27a32.949 32.949 0 013.941-3.941l198.239-286.414c4.277-6.176 3.511-14.535-1.805-19.86-5.313-5.312-13.672-6.074-19.867-1.804zM224.828 710.582l138.899-200.629 61.718 61.723zm222.649-160.934l-61.723-61.718 200.5-138.774zm0 0" fill="currentColor"/>
    </symbol>
    <symbol id="compass" viewBox="-62 1 934 934.999">
        <path d="M421.117 125.215V90.8c21.461-7.582 34.336-29.528 30.488-51.969C447.75 16.398 428.301 0 405.54 0c-22.758 0-42.219 16.398-46.066 38.832-3.852 22.441 9.03 44.387 30.488 51.969v34.414C169.465 133.703-3.672 317.117.574 537.75 4.816 758.363 184.875 935 405.54 935c220.66 0 400.719-176.637 404.965-397.25 4.238-220.633-168.89-404.047-389.387-412.535zm-15.578-93.86c8.606 0 15.578 6.977 15.578 15.575 0 8.605-6.972 15.586-15.578 15.586-8.601 0-15.578-6.98-15.578-15.586 0-8.598 6.976-15.575 15.578-15.575zm0 872.395c-206.492 0-373.883-167.395-373.883-373.887 0-206.488 167.39-373.883 373.883-373.883 206.492 0 373.883 167.395 373.883 373.883-.242 206.395-167.488 373.645-373.883 373.887zm0 0" fill="none"/>
        <path d="M639.012 274.719L352.574 472.992a33.207 33.207 0 01-3.941 3.938L150.395 763.34a15.56 15.56 0 001.804 19.86c5.313 5.316 13.676 6.081 19.863 1.808l286.442-198.27a32.949 32.949 0 013.941-3.941l198.239-286.414c4.277-6.176 3.511-14.535-1.805-19.86-5.313-5.312-13.672-6.074-19.867-1.804zM224.828 710.582l138.899-200.629 61.718 61.723zm222.649-160.934l-61.723-61.718 200.5-138.774zm0 0" fill="currentColor"/>
    </symbol>
    <symbol id="compass" viewBox="-62 1 934 934.999">
        <path d="M421.117 125.215V90.8c21.461-7.582 34.336-29.528 30.488-51.969C447.75 16.398 428.301 0 405.54 0c-22.758 0-42.219 16.398-46.066 38.832-3.852 22.441 9.03 44.387 30.488 51.969v34.414C169.465 133.703-3.672 317.117.574 537.75 4.816 758.363 184.875 935 405.54 935c220.66 0 400.719-176.637 404.965-397.25 4.238-220.633-168.89-404.047-389.387-412.535zm-15.578-93.86c8.606 0 15.578 6.977 15.578 15.575 0 8.605-6.972 15.586-15.578 15.586-8.601 0-15.578-6.98-15.578-15.586 0-8.598 6.976-15.575 15.578-15.575zm0 872.395c-206.492 0-373.883-167.395-373.883-373.887 0-206.488 167.39-373.883 373.883-373.883 206.492 0 373.883 167.395 373.883 373.883-.242 206.395-167.488 373.645-373.883 373.887zm0 0" fill="none"/>
        <path d="M639.012 274.719L352.574 472.992a33.207 33.207 0 01-3.941 3.938L150.395 763.34a15.56 15.56 0 001.804 19.86c5.313 5.316 13.676 6.081 19.863 1.808l286.442-198.27a32.949 32.949 0 013.941-3.941l198.239-286.414c4.277-6.176 3.511-14.535-1.805-19.86-5.313-5.312-13.672-6.074-19.867-1.804zM224.828 710.582l138.899-200.629 61.718 61.723zm222.649-160.934l-61.723-61.718 200.5-138.774zm0 0" fill="currentColor"/>
    </symbol>
    <symbol id="time" viewBox="0 0 60 60">
        <path d="M30 0C13.458 0 0 13.458 0 30s13.458 30 30 30 30-13.458 30-30S46.542 0 30 0zm0 58C14.561 58 2 45.439 2 30S14.561 2 30 2s28 12.561 28 28-12.561 28-28 28z"/>
        <path d="M30 6a1 1 0 00-1 1v23H14a1 1 0 100 2h16a1 1 0 001-1V7a1 1 0 00-1-1z"/>
    </symbol>
    <symbol id="undefined" viewBox="0 0 493.242 493.242">
        <path d="M325.42 277.975v38.539c81.537 12.266 129.332 42.092 129.332 64.984 0 29.521-79.18 70.689-208.131 70.689-128.95 0-208.131-41.169-208.131-70.689 0-22.893 47.796-52.719 129.35-64.984v-38.555C77.221 290.91 0 326.248 0 381.498c0 70.912 127.07 109.18 246.621 109.18s246.621-38.267 246.621-109.18c0-55.25-77.203-90.571-167.822-103.523z"/>
        <path d="M167.395 222.214a17.763 17.763 0 0016.313-10.691l15.088-34.571v178.053c0 10.737 8.699 19.436 19.438 19.436 10.737 0 19.435-8.699 19.435-19.436V235.819h17.922v119.186c0 10.737 8.699 19.436 19.438 19.436 10.738 0 19.436-8.699 19.436-19.436V176.936l15.087 34.588c2.82 6.501 16.315 10.691 16.315 10.691 5.99 0 11.613-3.026 14.896-8.046a17.764 17.764 0 001.418-16.87l-36.737-84.28c-6.66-15.277-21.763-25.171-38.444-25.171h-40.735c-16.682 0-31.785 9.877-38.444 25.171l-36.754 84.28a17.811 17.811 0 001.435 16.87 17.788 17.788 0 0014.893 8.045zM246.621 74.321c12.73 0 23.865-6.692 30.221-16.712 3.538-5.545 5.657-12.092 5.657-19.151 0-19.835-16.074-35.893-35.878-35.893-19.803 0-35.861 16.059-35.861 35.893 0 7.06 2.117 13.607 5.641 19.166 6.37 10.005 17.49 16.697 30.22 16.697z"/>
    </symbol>
    <symbol id="locate-user" viewBox="0 0 493.242 493.242">
        <path d="M325.42 277.975v38.539c81.537 12.266 129.332 42.092 129.332 64.984 0 29.521-79.18 70.689-208.131 70.689-128.95 0-208.131-41.169-208.131-70.689 0-22.893 47.796-52.719 129.35-64.984v-38.555C77.221 290.91 0 326.248 0 381.498c0 70.912 127.07 109.18 246.621 109.18s246.621-38.267 246.621-109.18c0-55.25-77.203-90.571-167.822-103.523z"/>
        <path d="M167.395 222.214a17.763 17.763 0 0016.313-10.691l15.088-34.571v178.053c0 10.737 8.699 19.436 19.438 19.436 10.737 0 19.435-8.699 19.435-19.436V235.819h17.922v119.186c0 10.737 8.699 19.436 19.438 19.436 10.738 0 19.436-8.699 19.436-19.436V176.936l15.087 34.588c2.82 6.501 16.315 10.691 16.315 10.691 5.99 0 11.613-3.026 14.896-8.046a17.764 17.764 0 001.418-16.87l-36.737-84.28c-6.66-15.277-21.763-25.171-38.444-25.171h-40.735c-16.682 0-31.785 9.877-38.444 25.171l-36.754 84.28a17.811 17.811 0 001.435 16.87 17.788 17.788 0 0014.893 8.045zM246.621 74.321c12.73 0 23.865-6.692 30.221-16.712 3.538-5.545 5.657-12.092 5.657-19.151 0-19.835-16.074-35.893-35.878-35.893-19.803 0-35.861 16.059-35.861 35.893 0 7.06 2.117 13.607 5.641 19.166 6.37 10.005 17.49 16.697 30.22 16.697z"/>
    </symbol>
    <symbol id="chat" viewBox="0 0 60 60">
        <path d="M16 24.5c-2.206 0-4 1.794-4 4s1.794 4 4 4 4-1.794 4-4-1.794-4-4-4zm0 6c-1.103 0-2-.897-2-2s.897-2 2-2 2 .897 2 2-.897 2-2 2zM30 24.5c-2.206 0-4 1.794-4 4s1.794 4 4 4 4-1.794 4-4-1.794-4-4-4zm0 6c-1.103 0-2-.897-2-2s.897-2 2-2 2 .897 2 2-.897 2-2 2zM44 24.5c-2.206 0-4 1.794-4 4s1.794 4 4 4 4-1.794 4-4-1.794-4-4-4zm0 6c-1.103 0-2-.897-2-2s.897-2 2-2 2 .897 2 2-.897 2-2 2z"/>
        <path d="M30 1.5c-16.542 0-30 12.112-30 27 0 5.204 1.646 10.245 4.768 14.604-.591 6.537-2.175 11.39-4.475 13.689a1 1 0 00.846 1.697c.405-.057 9.813-1.411 16.618-5.339C21.621 54.71 25.737 55.5 30 55.5c16.542 0 30-12.112 30-27s-13.458-27-30-27zm0 52a30.65 30.65 0 01-10.075-1.681c4.075-2.546 4.084-2.726 4.081-3.316a1.019 1.019 0 00-.491-.861 1 1 0 00-1.338.29c-.548.435-2.904 1.945-5.014 3.248h-.001c-4.466 2.697-10.476 4.202-13.81 4.881 2.202-3.67 3.091-8.985 3.44-13.16a1.007 1.007 0 00-.191-.677C3.591 38.143 2 33.396 2 28.5c0-13.785 12.561-25 28-25s28 11.215 28 25-12.561 25-28 25z"/>
    </symbol>
    <symbol id="bus" viewBox="0 0 15.631 20.261">
        <defs>
            <style>
                
                
                
                
                
                
                
                
                
                
                
                
                
                
                
                
                
                
                
                
                
                
                .cls-1{fill:#33b7c9;stroke:#33b7c9;stroke-width:.2px}
            
            
            
            
            
            
            
            
            
            
            
            
            
            
            
            
            
            
            
            
            
            
            </style>
        </defs>
        <g id="bus" transform="translate(-47.901 .1)">
            <g id="Group_362" data-name="Group 362" transform="translate(48)">
                <g id="Group_361" data-name="Group 361">
                    <path id="Path_890" d="M61.5 0H49.929A1.935 1.935 0 0048 1.929v13.888a1.82 1.82 0 00.791 1.447.835.835 0 00-.019.1v1.35a1.342 1.342 0 001.35 1.35h.386a1.342 1.342 0 001.35-1.35v-.964h7.716v.964a1.342 1.342 0 001.35 1.35h.386a1.342 1.342 0 001.35-1.35v-1.35a1.927 1.927 0 00.772-1.543V1.929A1.935 1.935 0 0061.5 0zM51.086 18.711a.568.568 0 01-.579.579h-.386a.568.568 0 01-.579-.579V17.65a2.02 2.02 0 00.579.1h.964zm10.8 0a.568.568 0 01-.579.579h-.386a.568.568 0 01-.579-.579v-.964H61.5a2.375 2.375 0 00.386-.039zm.772-2.893a1.161 1.161 0 01-1.158 1.157H50.122a1.357 1.357 0 01-1.35-1.157v-3.473H62.66zm0-4.244H48.772V3.858H62.66zm0-8.487H48.772V1.929A1.161 1.161 0 0149.929.772H61.5a1.161 1.161 0 011.16 1.157z" class="cls-1" data-name="Path 890" transform="translate(-48)"/>
                    <path id="Path_893" d="M85.157 278.315A1.157 1.157 0 1084 277.157a1.161 1.161 0 001.157 1.158zm0-1.543a.386.386 0 11-.386.386.387.387 0 01.386-.386z" class="cls-1" data-name="Path 893" transform="translate(-82.264 -262.69)"/>
                    <path id="Path_894" d="M285.157 278.315a1.157 1.157 0 10-1.157-1.158 1.161 1.161 0 001.157 1.158zm0-1.543a.386.386 0 11-.386.386.387.387 0 01.386-.386z" class="cls-1" data-name="Path 894" transform="translate(-272.619 -262.69)"/>
                </g>
            </g>
        </g>
    </symbol>
    <symbol id="locate-user" viewBox="0 0 493.242 493.242">
        <g fill="currentColor">
            <path d="M325.42 277.975v38.539c81.537 12.266 129.332 42.092 129.332 64.984 0 29.521-79.18 70.689-208.131 70.689-128.95 0-208.131-41.169-208.131-70.689 0-22.893 47.796-52.719 129.35-64.984v-38.555C77.221 290.91 0 326.248 0 381.498c0 70.912 127.07 109.18 246.621 109.18s246.621-38.267 246.621-109.18c0-55.25-77.203-90.571-167.822-103.523z"/>
            <path d="M167.395 222.214a17.763 17.763 0 0016.313-10.691l15.088-34.571v178.053c0 10.737 8.699 19.436 19.438 19.436 10.737 0 19.435-8.699 19.435-19.436V235.819h17.922v119.186c0 10.737 8.699 19.436 19.438 19.436 10.738 0 19.436-8.699 19.436-19.436V176.936l15.087 34.588c2.82 6.501 16.315 10.691 16.315 10.691 5.99 0 11.613-3.026 14.896-8.046a17.764 17.764 0 001.418-16.87l-36.737-84.28c-6.66-15.277-21.763-25.171-38.444-25.171h-40.735c-16.682 0-31.785 9.877-38.444 25.171l-36.754 84.28a17.811 17.811 0 001.435 16.87 17.788 17.788 0 0014.893 8.045zM246.621 74.321c12.73 0 23.865-6.692 30.221-16.712 3.538-5.545 5.657-12.092 5.657-19.151 0-19.835-16.074-35.893-35.878-35.893-19.803 0-35.861 16.059-35.861 35.893 0 7.06 2.117 13.607 5.641 19.166 6.37 10.005 17.49 16.697 30.22 16.697z"/>
        </g>
    </symbol>
    <symbol id="bus" viewBox="0 0 416 416">
        <path d="M328 0H88C66 0 48 18 48 40v288c0 12.4 6.8 22.8 16.4 30 0 .4-.4 1.2-.4 2v28c0 15.6 12.4 28 28 28h8c15.6 0 28-12.4 28-28v-20h160v20c0 15.6 12.4 28 28 28h8c15.6 0 28-12.4 28-28v-28c9.6-7.2 16-18.8 16-32V40c0-22-18-40-40-40zM112 388c0 6.8-5.2 12-12 12h-8c-6.8 0-12-5.2-12-12v-22c4 1.2 8 2 12 2h20v20zm224 0c0 6.8-5.2 12-12 12h-8c-6.8 0-12-5.2-12-12v-20h24c2.8 0 5.6-.4 8-.8V388zm16-60c0 13.2-10.8 24-24 24H92c-12.8 0-28-10.8-28-24v-72h288v72zm0-88H64V80h288v160zm0-176H64V40c0-13.2 10.8-24 24-24h240c13.2 0 24 10.8 24 24v24z"/>
        <path d="M192 32h-52c-4.4 0-8 3.6-8 8s3.6 8 8 8h52c4.4 0 8-3.6 8-8s-3.6-8-8-8zM240 32h-12c-4.4 0-8 3.6-8 8s3.6 8 8 8h12c4.4 0 8-3.6 8-8s-3.6-8-8-8zM108 324c13.2 0 24-10.8 24-24s-10.8-24-24-24-24 10.8-24 24 10.8 24 24 24zm0-32c4.4 0 8 3.6 8 8s-3.6 8-8 8-8-3.6-8-8 3.6-8 8-8zM308 324c13.2 0 24-10.8 24-24s-10.8-24-24-24-24 10.8-24 24 10.8 24 24 24zm0-32c4.4 0 8 3.6 8 8s-3.6 8-8 8-8-3.6-8-8 3.6-8 8-8z"/>
    </symbol>
    <symbol id="bus" viewBox="0 0 416 416">
        <path d="M328 0H88C66 0 48 18 48 40v288c0 12.4 6.8 22.8 16.4 30 0 .4-.4 1.2-.4 2v28c0 15.6 12.4 28 28 28h8c15.6 0 28-12.4 28-28v-20h160v20c0 15.6 12.4 28 28 28h8c15.6 0 28-12.4 28-28v-28c9.6-7.2 16-18.8 16-32V40c0-22-18-40-40-40zM112 388c0 6.8-5.2 12-12 12h-8c-6.8 0-12-5.2-12-12v-22c4 1.2 8 2 12 2h20v20zm224 0c0 6.8-5.2 12-12 12h-8c-6.8 0-12-5.2-12-12v-20h24c2.8 0 5.6-.4 8-.8V388zm16-60c0 13.2-10.8 24-24 24H92c-12.8 0-28-10.8-28-24v-72h288v72zm0-88H64V80h288v160zm0-176H64V40c0-13.2 10.8-24 24-24h240c13.2 0 24 10.8 24 24v24z"/>
        <path d="M192 32h-52c-4.4 0-8 3.6-8 8s3.6 8 8 8h52c4.4 0 8-3.6 8-8s-3.6-8-8-8zM240 32h-12c-4.4 0-8 3.6-8 8s3.6 8 8 8h12c4.4 0 8-3.6 8-8s-3.6-8-8-8zM108 324c13.2 0 24-10.8 24-24s-10.8-24-24-24-24 10.8-24 24 10.8 24 24 24zm0-32c4.4 0 8 3.6 8 8s-3.6 8-8 8-8-3.6-8-8 3.6-8 8-8zM308 324c13.2 0 24-10.8 24-24s-10.8-24-24-24-24 10.8-24 24 10.8 24 24 24zm0-32c4.4 0 8 3.6 8 8s-3.6 8-8 8-8-3.6-8-8 3.6-8 8-8z"/>
    </symbol>
    <symbol id="bus-icon" viewBox="0 0 416 416">
        <path d="M328 0H88C66 0 48 18 48 40v288c0 12.4 6.8 22.8 16.4 30 0 .4-.4 1.2-.4 2v28c0 15.6 12.4 28 28 28h8c15.6 0 28-12.4 28-28v-20h160v20c0 15.6 12.4 28 28 28h8c15.6 0 28-12.4 28-28v-28c9.6-7.2 16-18.8 16-32V40c0-22-18-40-40-40zM112 388c0 6.8-5.2 12-12 12h-8c-6.8 0-12-5.2-12-12v-22c4 1.2 8 2 12 2h20v20zm224 0c0 6.8-5.2 12-12 12h-8c-6.8 0-12-5.2-12-12v-20h24c2.8 0 5.6-.4 8-.8V388zm16-60c0 13.2-10.8 24-24 24H92c-12.8 0-28-10.8-28-24v-72h288v72zm0-88H64V80h288v160zm0-176H64V40c0-13.2 10.8-24 24-24h240c13.2 0 24 10.8 24 24v24z"/>
        <path d="M192 32h-52c-4.4 0-8 3.6-8 8s3.6 8 8 8h52c4.4 0 8-3.6 8-8s-3.6-8-8-8zM240 32h-12c-4.4 0-8 3.6-8 8s3.6 8 8 8h12c4.4 0 8-3.6 8-8s-3.6-8-8-8zM108 324c13.2 0 24-10.8 24-24s-10.8-24-24-24-24 10.8-24 24 10.8 24 24 24zm0-32c4.4 0 8 3.6 8 8s-3.6 8-8 8-8-3.6-8-8 3.6-8 8-8zM308 324c13.2 0 24-10.8 24-24s-10.8-24-24-24-24 10.8-24 24 10.8 24 24 24zm0-32c4.4 0 8 3.6 8 8s-3.6 8-8 8-8-3.6-8-8 3.6-8 8-8z"/>
    </symbol>
    <symbol id="cancel" viewBox="0 0 35.053 35.053">
        <path d="M17.168 0C10.9 0 5.277 3.208 2.094 8.591l-.84-.811C.967 7.503.68 7.454.507 7.635c-.107.11-.159.298-.151.543l.156 4.667c.02.586.342.632.44.632.157 0 .331-.094.502-.271l3.234-3.368c.297-.31.267-.529.223-.632-.042-.1-.173-.267-.569-.267l-1.026.036c2.979-4.843 8.141-7.726 13.854-7.726 8.976 0 16.277 7.302 16.277 16.276 0 8.976-7.303 16.277-16.277 16.277a16.277 16.277 0 01-15.399-10.99.64.64 0 00-.793-.388.623.623 0 00-.389.794 17.532 17.532 0 0016.582 11.834c9.665 0 17.527-7.863 17.527-17.527C34.695 7.863 26.833 0 17.168 0z"/>
    </symbol>
    <symbol id="left" viewBox="0 0 511.641 511.641">
        <path d="M148.32 255.76L386.08 18c4.053-4.267 3.947-10.987-.213-15.04a10.763 10.763 0 00-14.827 0L125.707 248.293a10.623 10.623 0 000 15.04L371.04 508.667c4.267 4.053 10.987 3.947 15.04-.213a10.763 10.763 0 000-14.827L148.32 255.76z"/>
    </symbol>
    <symbol id="right" viewBox="0 0 185.343 185.343">
        <path d="M51.707 185.343a10.692 10.692 0 01-7.593-3.149 10.724 10.724 0 010-15.175l74.352-74.347L44.114 18.32c-4.194-4.194-4.194-10.987 0-15.175 4.194-4.194 10.987-4.194 15.18 0l81.934 81.934c4.194 4.194 4.194 10.987 0 15.175l-81.934 81.939a10.678 10.678 0 01-7.587 3.15z" fill="currentColor"/>
    </symbol>
    <symbol id="right-arrow" viewBox="0 0 551.13 551.13">
        <path d="M361.679 275.565L137.783 499.462v51.668l275.565-275.565L137.783 0v51.668z"/>
    </symbol>
    <symbol id="rightIcon" viewBox="undefined">
        <path fill="none" d="M-1-1h582v402H-1z"/>
        <g>
            <path d="M382.735 254.881l-237.76 237.76c-4.053 4.267-3.947 10.987.213 15.04a10.763 10.763 0 0014.827 0l245.333-245.333a10.623 10.623 0 000-15.04L160.015 1.974c-4.267-4.053-10.987-3.947-15.04.213a10.763 10.763 0 000 14.827l237.76 237.867z"/>
        </g>
    </symbol>
    <symbol id="leftIcon" viewBox="0 0 511.641 511.641">
        <path d="M148.32 255.76L386.08 18c4.053-4.267 3.947-10.987-.213-15.04a10.763 10.763 0 00-14.827 0L125.707 248.293a10.623 10.623 0 000 15.04L371.04 508.667c4.267 4.053 10.987 3.947 15.04-.213a10.763 10.763 0 000-14.827L148.32 255.76z"/>
    </symbol>
    <symbol id="rightIcon" viewBox="undefined">
        <path fill="none" d="M-1-1h582v402H-1z"/>
        <g>
            <path d="M382.735 254.881l-237.76 237.76c-4.053 4.267-3.947 10.987.213 15.04a10.763 10.763 0 0014.827 0l245.333-245.333a10.623 10.623 0 000-15.04L160.015 1.974c-4.267-4.053-10.987-3.947-15.04.213a10.763 10.763 0 000 14.827l237.76 237.867z"/>
        </g>
    </symbol>
    <symbol id="leftImage" viewBox="undefined">
        <path fill="none" d="M-1-1h582v402H-1z"/>
        <g>
            <path d="M294.621 407.436l21.248-21.178-181.946-182.54 181.946-182.54L294.621 0 91.566 203.718z"/>
        </g>
    </symbol>
    <symbol id="menu" viewBox="0 0 512 512">
        <path d="M501.333 96H10.667C4.779 96 0 100.779 0 106.667s4.779 10.667 10.667 10.667h490.667c5.888 0 10.667-4.779 10.667-10.667S507.221 96 501.333 96zM501.333 245.333H10.667C4.779 245.333 0 250.112 0 256s4.779 10.667 10.667 10.667h490.667c5.888 0 10.667-4.779 10.667-10.667s-4.78-10.667-10.668-10.667zM501.333 394.667H10.667C4.779 394.667 0 399.445 0 405.333 0 411.221 4.779 416 10.667 416h490.667c5.888 0 10.667-4.779 10.667-10.667-.001-5.888-4.78-10.666-10.668-10.666z"/>
    </symbol>
    <symbol id="menu-icon" viewBox="0 0 512 512">
        <path d="M501.333 96H10.667C4.779 96 0 100.779 0 106.667s4.779 10.667 10.667 10.667h490.667c5.888 0 10.667-4.779 10.667-10.667S507.221 96 501.333 96zM501.333 245.333H10.667C4.779 245.333 0 250.112 0 256s4.779 10.667 10.667 10.667h490.667c5.888 0 10.667-4.779 10.667-10.667s-4.78-10.667-10.668-10.667zM501.333 394.667H10.667C4.779 394.667 0 399.445 0 405.333 0 411.221 4.779 416 10.667 416h490.667c5.888 0 10.667-4.779 10.667-10.667-.001-5.888-4.78-10.666-10.668-10.666z"/>
    </symbol>
    <symbol id="google" viewBox="0 0 458.246 458.246">
        <g fill="currentColor">
            <path d="M160.777 259.368h71.594c-12.567 35.53-46.603 61.004-86.45 60.71-48.349-.357-88.327-39.035-90.204-87.349-2.012-51.789 39.537-94.563 90.887-94.563 23.479 0 44.905 8.946 61.058 23.605 3.826 3.473 9.65 3.495 13.413-.047l26.296-24.749c4.112-3.871 4.127-10.408.027-14.292-25.617-24.269-59.981-39.396-97.876-40.136C68.696 80.969.567 147.238.004 228.078c-.568 81.447 65.285 147.649 146.6 147.649 78.199 0 142.081-61.229 146.36-138.358.114-.967.189-33.648.189-33.648H160.777c-5.426 0-9.824 4.398-9.824 9.824v35.999c0 5.426 4.399 9.824 9.824 9.824zM414.464 206.99v-35.173a8.609 8.609 0 00-8.609-8.609h-29.604a8.609 8.609 0 00-8.609 8.609v35.173h-35.173a8.609 8.609 0 00-8.609 8.609v29.604a8.609 8.609 0 008.609 8.609h35.173v35.173a8.609 8.609 0 008.609 8.609h29.604a8.609 8.609 0 008.609-8.609v-35.173h35.173a8.609 8.609 0 008.609-8.609v-29.604a8.609 8.609 0 00-8.609-8.609h-35.173z"/>
        </g>
    </symbol>
    <symbol id="yandex" viewBox="0 0 512 512">
        <path d="M363.493 0h-72.744C217.05 0 142.684 54.422 142.684 176.006c0 62.978 26.691 112.027 75.619 139.922l-89.552 162.091c-4.246 7.666-4.357 16.354-.298 23.24 3.963 6.725 11.21 10.741 19.378 10.741h45.301c10.291 0 18.315-4.974 22.163-13.688L299.26 334.08h6.128v157.451c0 11.096 9.363 20.469 20.446 20.469h39.574c12.429 0 21.106-8.678 21.106-21.104V22.403C386.516 9.213 377.05 0 363.493 0zm-58.105 261.126h-10.81c-41.915 0-66.938-34.214-66.938-91.523 0-71.259 31.61-96.648 61.194-96.648h16.554v188.171z" fill="currentColor"/>
    </symbol>
    <symbol id="yandex" viewBox="0 0 512 512">
        <path d="M510.689 478.854c0 17.561-14.275 31.836-31.836 31.836H33.146c-17.559 0-31.836-14.275-31.836-31.836V33.146c0-17.56 14.277-31.836 31.836-31.836h445.707c17.561 0 31.836 14.276 31.836 31.836v445.708z" fill="currentColor"/>
        <path d="M313.475 105.366h-45.648c-44.854 0-82.892 34.142-82.892 100.427 0 39.765 18.42 69.084 51.25 83.547l-61.262 110.869c-2.005 3.619 0 6.426 3.202 6.426h28.433c2.4 0 4.01-.801 4.81-2.807l55.659-108.863h20.021v108.863c0 1.197 1.197 2.807 2.799 2.807h24.832c2.4 0 3.203-1.205 3.203-3.205V109.383c-.001-2.812-1.603-4.017-4.407-4.017zM287.047 269.26h-16.818c-26.427 0-52.053-19.281-52.053-67.483 0-50.22 24.024-70.705 48.448-70.705h20.424V269.26z" fill="currentColor"/>
    </symbol>
    <symbol id="yandex" viewBox="0 0 512 512">
        <path d="M510.689 478.854c0 17.561-14.275 31.836-31.836 31.836H33.146c-17.559 0-31.836-14.275-31.836-31.836V33.146c0-17.56 14.277-31.836 31.836-31.836h445.707c17.561 0 31.836 14.276 31.836 31.836v445.708z" fill="currentColor"/>
        <path d="M313.475 105.366h-45.648c-44.854 0-82.892 34.142-82.892 100.427 0 39.765 18.42 69.084 51.25 83.547l-61.262 110.869c-2.005 3.619 0 6.426 3.202 6.426h28.433c2.4 0 4.01-.801 4.81-2.807l55.659-108.863h20.021v108.863c0 1.197 1.197 2.807 2.799 2.807h24.832c2.4 0 3.203-1.205 3.203-3.205V109.383c-.001-2.812-1.603-4.017-4.407-4.017zM287.047 269.26h-16.818c-26.427 0-52.053-19.281-52.053-67.483 0-50.22 24.024-70.705 48.448-70.705h20.424V269.26z" fill="currentColor"/>
    </symbol>
    <symbol id="yandexIcon" viewBox="0 0 512 512">
        <path d="M510.689 478.854c0 17.561-14.275 31.836-31.836 31.836H33.146c-17.559 0-31.836-14.275-31.836-31.836V33.146c0-17.56 14.277-31.836 31.836-31.836h445.707c17.561 0 31.836 14.276 31.836 31.836v445.708z" fill="currentColor"/>
        <path d="M313.475 105.366h-45.648c-44.854 0-82.892 34.142-82.892 100.427 0 39.765 18.42 69.084 51.25 83.547l-61.262 110.869c-2.005 3.619 0 6.426 3.202 6.426h28.433c2.4 0 4.01-.801 4.81-2.807l55.659-108.863h20.021v108.863c0 1.197 1.197 2.807 2.799 2.807h24.832c2.4 0 3.203-1.205 3.203-3.205V109.383c-.001-2.812-1.603-4.017-4.407-4.017zM287.047 269.26h-16.818c-26.427 0-52.053-19.281-52.053-67.483 0-50.22 24.024-70.705 48.448-70.705h20.424V269.26z" fill="currentColor"/>
    </symbol>
    <symbol id="yandexLogin" viewBox="0 0 512 512">
        <path d="M363.493 0h-72.744C217.05 0 142.684 54.422 142.684 176.006c0 62.978 26.691 112.027 75.619 139.922l-89.552 162.091c-4.246 7.666-4.357 16.354-.298 23.24 3.963 6.725 11.21 10.741 19.378 10.741h45.301c10.291 0 18.315-4.974 22.163-13.688L299.26 334.08h6.128v157.451c0 11.096 9.363 20.469 20.446 20.469h39.574c12.429 0 21.106-8.678 21.106-21.104V22.403C386.516 9.213 377.05 0 363.493 0zm-58.105 261.126h-10.81c-41.915 0-66.938-34.214-66.938-91.523 0-71.259 31.61-96.648 61.194-96.648h16.554v188.171z" fill="currentColor"/>
    </symbol>
    <symbol id="right" viewBox="0 0 511.949 511.949">
        <path d="M386.235 248.308L140.902 2.975c-4.267-4.053-10.987-3.947-15.04.213a10.763 10.763 0 000 14.827l237.76 237.76-237.76 237.867c-4.267 4.053-4.373 10.88-.213 15.04 4.053 4.267 10.88 4.373 15.04.213l.213-.213 245.333-245.333a10.624 10.624 0 000-15.041z"/>
    </symbol>
    <symbol id="left" viewBox="0 0 551.13 551.13">
        <path d="M189.451 275.565L413.348 51.668V0L137.783 275.565 413.348 551.13v-51.668z"/>
    </symbol>
</svg>