<svg xmlns="http://www.w3.org/2000/svg" width="24.002" height="23.995" viewBox="0 0 24.002 23.995">
    <defs>
        <style>
            .cls-1{fill:#fff}
        </style>
    </defs>
    <path id="instagram-brands" d="M11.928 37.671a6.152 6.152 0 1 0 6.152 6.152 6.142 6.142 0 0 0-6.152-6.152zm0 10.152a4 4 0 1 1 4-4 4.007 4.007 0 0 1-4 4zm7.839-10.4a1.435 1.435 0 1 1-1.435-1.435 1.432 1.432 0 0 1 1.435 1.431zm4.075 1.456a7.1 7.1 0 0 0-1.942-5.031 7.148 7.148 0 0 0-5.028-1.938c-1.981-.112-7.919-.112-9.9 0a7.138 7.138 0 0 0-5.028 1.933A7.125 7.125 0 0 0 .009 38.87c-.112 1.981-.112 7.919 0 9.9a7.1 7.1 0 0 0 1.939 5.03 7.157 7.157 0 0 0 5.028 1.938c1.981.112 7.919.112 9.9 0A7.1 7.1 0 0 0 21.9 53.8a7.148 7.148 0 0 0 1.938-5.028c.112-1.981.112-7.914 0-9.895zM21.283 50.9A4.049 4.049 0 0 1 19 53.177c-1.58.626-5.328.482-7.073.482s-5.5.139-7.073-.482a4.049 4.049 0 0 1-2.28-2.277c-.626-1.58-.482-5.328-.482-7.073s-.139-5.5.482-7.073a4.049 4.049 0 0 1 2.281-2.281c1.58-.626 5.328-.482 7.073-.482s5.5-.139 7.073.482a4.049 4.049 0 0 1 2.281 2.281c.626 1.58.482 5.328.482 7.073s.145 5.495-.481 7.073z" class="cls-1" transform="translate(.076 -31.826)"/>
</svg>
