<?xml version="1.0" encoding="iso-8859-1"?>
<!-- Generator: Adobe Illustrator 18.0.0, SVG Export Plug-In . SVG Version: 6.00 Build 0)  -->
<!DOCTYPE svg PUBLIC "-//W3C//DTD SVG 1.1//EN" "http://www.w3.org/Graphics/SVG/1.1/DTD/svg11.dtd">
<svg version="1.1" id="Capa_1" xmlns="http://www.w3.org/2000/svg" xmlns:xlink="http://www.w3.org/1999/xlink" x="0px" y="0px"
	 viewBox="0 0 493.242 493.242" xml:space="preserve">
<g>
	<path d="M325.42,277.975v38.539c81.537,12.266,129.332,42.092,129.332,64.984c0,29.521-79.18,70.689-208.131,70.689
		c-128.95,0-208.131-41.169-208.131-70.689c0-22.893,47.796-52.719,129.35-64.984v-38.555C77.221,290.91,0,326.248,0,381.498
		c0,70.912,127.07,109.18,246.621,109.18s246.621-38.267,246.621-109.18C493.242,326.248,416.039,290.927,325.42,277.975z" fill ='#33b7c9'/>
	<path d="M167.395,222.214c7.088,0,13.492-4.189,16.313-10.691l15.088-34.571v178.053c0,10.737,8.699,19.436,19.438,19.436
		c10.737,0,19.435-8.699,19.435-19.436V235.819h17.922v119.186c0,10.737,8.699,19.436,19.438,19.436
		c10.738,0,19.436-8.699,19.436-19.436V176.936l15.087,34.588c2.82,6.501,16.315,10.691,16.315,10.691
		c5.99,0,11.613-3.026,14.896-8.046c3.298-5.035,3.824-11.358,1.418-16.87l-36.737-84.28c-6.66-15.277-21.763-25.171-38.444-25.171
		h-40.735c-16.682,0-31.785,9.877-38.444,25.171l-36.754,84.28c-2.39,5.496-1.864,11.835,1.435,16.87
		C155.778,219.187,161.387,222.214,167.395,222.214z" fill ='#33b7c9'/>
	<path d="M246.621,74.321c12.73,0,23.865-6.692,30.221-16.712c3.538-5.545,5.657-12.092,5.657-19.151
		c0-19.835-16.074-35.893-35.878-35.893c-19.803,0-35.861,16.059-35.861,35.893c0,7.06,2.117,13.607,5.641,19.166
		C222.771,67.629,233.891,74.321,246.621,74.321z" fill ='#33b7c9'/>
</g>
<g>
</g>
<g>
</g>
<g>
</g>
<g>
</g>
<g>
</g>
<g>
</g>
<g>
</g>
<g>
</g>
<g>
</g>
<g>
</g>
<g>
</g>
<g>
</g>
<g>
</g>
<g>
</g>
<g>
</g>
</svg>
