<?xml version="1.0" encoding="utf-8"?>
<!-- Generator: Adobe Illustrator 17.1.0, SVG Export Plug-In . SVG Version: 6.00 Build 0)  -->
<!DOCTYPE svg PUBLIC "-//W3C//DTD SVG 1.1//EN" "http://www.w3.org/Graphics/SVG/1.1/DTD/svg11.dtd">
<svg version="1.1" id="Layer_1" xmlns="http://www.w3.org/2000/svg" xmlns:xlink="http://www.w3.org/1999/xlink" x="0px" y="0px"
	 viewBox="0 0 1200 800" enable-background="new 0 0 1200 800" xml:space="preserve">
<g>
	<g>
		<g>
			<g>
				<path id="bMT44GqGH" fill="#37A5AB" d="M471,221.7l2.1,0.2l2.1,0.3l2.1,0.4l2,0.5l2,0.6l2,0.7l1.9,0.8l1.9,0.9l1.9,1l1.8,1
					l1.8,1.1l1.8,1.2l1.7,1.3l1.6,1.3l1.6,1.4l1.5,1.5l1.5,1.5l1.5,1.6l1.4,1.7l1.4,1.7l1.3,1.8l1.2,1.8l1.2,1.9l1.1,1.9l1,2l1,2
					l0.9,2.1l0.8,2.1l0.8,2.2l0.7,2.2l0.6,2.3l0.5,2.3l0.5,2.3l0.4,2.4l0.3,2.4l0.2,2.4l0.1,2.5l0,2.5l0,2.5l-0.1,2.5l-0.2,2.4
					l-0.3,2.4l-0.4,2.4l-0.5,2.3l-0.5,2.3l-0.6,2.3l-0.7,2.2l-0.8,2.2l-0.8,2.1l-0.9,2.1l-0.5,1h0l-0.2,0.4l-0.3,0.7l-0.7,1.3
					L466.7,402l-45.2-89.8l-0.5-0.9l-0.2-0.5l-0.1-0.3l0,0l-0.6-1.3l-0.9-2.1l-0.8-2.1l-0.8-2.2l-0.7-2.2l-0.6-2.3l-0.5-2.3
					l-0.5-2.3l-0.4-2.4l-0.3-2.4l-0.2-2.4l-0.1-2.5l0-2.5l0-2.5l0.1-2.5l0.2-2.4l0.3-2.4l0.4-2.4l0.5-2.3l0.5-2.3l0.6-2.3l0.7-2.2
					l0.8-2.2l0.8-2.1l0.9-2.1l1-2l1-2l1.1-1.9l1.2-1.9l1.2-1.8l1.3-1.8l1.3-1.7l1.4-1.7l1.5-1.6l1.5-1.5l1.5-1.5l1.6-1.4l1.7-1.3
					l1.7-1.3l1.7-1.2l1.8-1.1l1.8-1l1.9-1l1.9-0.9l1.9-0.8l2-0.7l2-0.6l2-0.5l2.1-0.4l2.1-0.3l2.1-0.2l2.1-0.1l2.2,0l2.2,0
					L471,221.7z"/>
			</g>
			<g>
				<g>
					<path id="bMT44GqGH_1_" fill-opacity="0" stroke="#415968" stroke-width="3" d="M471,221.7l2.1,0.2l2.1,0.3l2.1,0.4l2,0.5
						l2,0.6l2,0.7l1.9,0.8l1.9,0.9l1.9,1l1.8,1l1.8,1.1l1.8,1.2l1.7,1.3l1.6,1.3l1.6,1.4l1.5,1.5l1.5,1.5l1.5,1.6l1.4,1.7l1.4,1.7
						l1.3,1.8l1.2,1.8l1.2,1.9l1.1,1.9l1,2l1,2l0.9,2.1l0.8,2.1l0.8,2.2l0.7,2.2l0.6,2.3l0.5,2.3l0.5,2.3l0.4,2.4l0.3,2.4l0.2,2.4
						l0.1,2.5l0,2.5l0,2.5l-0.1,2.5l-0.2,2.4l-0.3,2.4l-0.4,2.4l-0.5,2.3l-0.5,2.3l-0.6,2.3l-0.7,2.2l-0.8,2.2l-0.8,2.1l-0.9,2.1
						l-0.5,1h0l-0.2,0.4l-0.3,0.7l-0.7,1.3L466.7,402l-45.2-89.8l-0.5-0.9l-0.2-0.5l-0.1-0.3l0,0l-0.6-1.3l-0.9-2.1l-0.8-2.1
						l-0.8-2.2l-0.7-2.2l-0.6-2.3l-0.5-2.3l-0.5-2.3l-0.4-2.4l-0.3-2.4l-0.2-2.4l-0.1-2.5l0-2.5l0-2.5l0.1-2.5l0.2-2.4l0.3-2.4
						l0.4-2.4l0.5-2.3l0.5-2.3l0.6-2.3l0.7-2.2l0.8-2.2l0.8-2.1l0.9-2.1l1-2l1-2l1.1-1.9l1.2-1.9l1.2-1.8l1.3-1.8l1.3-1.7l1.4-1.7
						l1.5-1.6l1.5-1.5l1.5-1.5l1.6-1.4l1.7-1.3l1.7-1.3l1.7-1.2l1.8-1.1l1.8-1l1.9-1l1.9-0.9l1.9-0.8l2-0.7l2-0.6l2-0.5l2.1-0.4
						l2.1-0.3l2.1-0.2l2.1-0.1l2.2,0l2.2,0L471,221.7z"/>
				</g>
			</g>
		</g>
		<g>
			<g>
				<path id="b1RCYY6LD3" fill="#FFFFFF" d="M466.7,312.7c18.6,0,33.7-15.4,33.7-34.4S485.3,244,466.7,244
					c-18.6,0-33.7,15.4-33.7,34.4S448.1,312.7,466.7,312.7L466.7,312.7L466.7,312.7z"/>
			</g>
			<g>
				<g>
					<path id="b1RCYY6LD3_1_" fill-opacity="0" stroke="#415968" stroke-width="3" d="M466.7,312.7c18.6,0,33.7-15.4,33.7-34.4
						S485.3,244,466.7,244c-18.6,0-33.7,15.4-33.7,34.4S448.1,312.7,466.7,312.7L466.7,312.7L466.7,312.7z"/>
				</g>
			</g>
		</g>
		<g id="a1z7PLaO5l">
			<g>
				<text transform="matrix(1 0 0 1 338.379 316.0519)" fill="#FFFFFF" font-family="'ArialMT'" font-size="150">T</text>
			</g>
		</g>
		<g id="d1E7pvsYAn">
			<g>
				<text transform="matrix(1 0 0 1 456.5043 423.0376)" fill="#FFFFFF" font-family="'ArialMT'" font-size="70">.online</text>
			</g>
		</g>
		<g id="d43Bda79mW">
			<g>
				<text transform="matrix(1 0 0 1 525.3079 316.05)" fill="#FFFFFF" font-family="'ArialMT'" font-size="150">uRest</text>
			</g>
		</g>
	</g>
</g>
</svg>
