<svg xmlns="http://www.w3.org/2000/svg" width="24.479" height="13.967" viewBox="0 0 24.479 13.967">
    <defs>
        <style>
            .cls-1{fill:#33b7c9}
        </style>
    </defs>
    <g id="vk-social-network-logo">
        <path id="Path_895" d="M24.349 130.361a1.672 1.672 0 0 0-.083-.159 12.686 12.686 0 0 0-2.434-2.817l-.025-.025-.013-.012-.013-.013h-.013q-.816-.778-1.032-1.045a.981.981 0 0 1-.179-1.033 9.623 9.623 0 0 1 1.147-1.669q.523-.676.828-1.083 2.205-2.931 1.912-3.747l-.076-.127a.746.746 0 0 0-.395-.21 2.007 2.007 0 0 0-.816-.032l-3.67.025a.476.476 0 0 0-.255.006l-.166.038-.066.032-.051.038a.566.566 0 0 0-.14.134.875.875 0 0 0-.127.223 20.81 20.81 0 0 1-1.364 2.868q-.472.79-.867 1.37a6.591 6.591 0 0 1-.663.854 4.623 4.623 0 0 1-.484.44q-.217.166-.331.14l-.217-.051a.847.847 0 0 1-.287-.312 1.4 1.4 0 0 1-.147-.5q-.038-.3-.045-.516t.006-.612q.013-.4.013-.535 0-.484.019-1.051t.032-.9q.013-.331.013-.7a2.945 2.945 0 0 0-.045-.58 1.984 1.984 0 0 0-.133-.408.687.687 0 0 0-.261-.306 1.472 1.472 0 0 0-.427-.172 8.48 8.48 0 0 0-1.721-.166 8.361 8.361 0 0 0-3.046.306 1.717 1.717 0 0 0-.484.382q-.229.28-.064.306a1.562 1.562 0 0 1 1.083.548l.077.153a2.438 2.438 0 0 1 .179.586 5.915 5.915 0 0 1 .115.93 9.921 9.921 0 0 1 0 1.593q-.064.663-.121 1.032a2.067 2.067 0 0 1-.172.6 2.529 2.529 0 0 1-.153.28.22.22 0 0 1-.064.064.955.955 0 0 1-.344.064.808.808 0 0 1-.433-.179 3.056 3.056 0 0 1-.529-.491 6.558 6.558 0 0 1-.618-.873q-.344-.561-.714-1.325l-.2-.37q-.191-.357-.522-1.039T5.175 119a.84.84 0 0 0-.306-.408l-.064-.038a.872.872 0 0 0-.2-.108 1.351 1.351 0 0 0-.293-.083l-3.492.025a.888.888 0 0 0-.726.242l-.051.076a.412.412 0 0 0-.038.2 1.015 1.015 0 0 0 .077.344q.765 1.8 1.663 3.467t1.555 2.692q.663 1.02 1.351 1.924t.911 1.16q.223.255.351.382l.319.306a7.565 7.565 0 0 0 .9.733 15.327 15.327 0 0 0 1.313.841 7.121 7.121 0 0 0 1.676.675 5.8 5.8 0 0 0 1.861.211h1.466a1.015 1.015 0 0 0 .676-.28l.051-.064a.845.845 0 0 0 .1-.236 1.3 1.3 0 0 0 .045-.35 4.2 4.2 0 0 1 .083-.988 2.6 2.6 0 0 1 .217-.663 1.628 1.628 0 0 1 .274-.376 1.107 1.107 0 0 1 .217-.185.832.832 0 0 1 .1-.045.809.809 0 0 1 .72.2 4.23 4.23 0 0 1 .778.739q.363.44.873.988a6 6 0 0 0 .892.816l.255.153a3.1 3.1 0 0 0 .663.28 1.429 1.429 0 0 0 .714.064l3.263-.051a1.479 1.479 0 0 0 .752-.159.632.632 0 0 0 .319-.35.987.987 0 0 0 .006-.434 1.6 1.6 0 0 0-.097-.339z" class="cls-1" data-name="Path 895" transform="translate(0 -117.748)"/>
    </g>
</svg>
